# Blender v3.0.0 OBJ File: 'apple.blend'
# www.blender.org
mtllib ellipsoid_01.mtl
o apple_Sphere.002
v 0.000000 1.061397 -0.207055
v 0.000000 0.433830 -0.692820
v 0.000000 -0.000000 -0.800000
v 0.000000 -0.207055 -0.772741
v 0.000000 -0.400000 -0.692820
v 0.000000 -0.565685 -0.565685
v 0.000000 -0.692820 -0.400000
v 0.000000 -0.772741 -0.207055
v 0.079237 1.061397 -0.191294
v 0.153073 0.896964 -0.369552
v 0.216478 0.674461 -0.522625
v 0.265131 0.433830 -0.640082
v 0.295715 0.207703 -0.713919
v 0.306147 -0.000000 -0.739104
v 0.295715 -0.207055 -0.713919
v 0.265131 -0.400000 -0.640082
v 0.216478 -0.565685 -0.522625
v 0.153073 -0.692820 -0.369552
v 0.079237 -0.772741 -0.191294
v 0.146410 1.061397 -0.146410
v 0.282843 0.896964 -0.282843
v 0.400000 0.674461 -0.400000
v 0.489898 0.433830 -0.489898
v 0.546410 0.207703 -0.546410
v 0.565685 -0.000000 -0.565685
v 0.546410 -0.207055 -0.546410
v 0.489898 -0.400000 -0.489898
v 0.400000 -0.565685 -0.400000
v 0.282843 -0.692820 -0.282843
v 0.146410 -0.772741 -0.146410
v 0.191294 1.061397 -0.079237
v 0.369552 0.896964 -0.153073
v 0.522625 0.674461 -0.216478
v 0.640083 0.433830 -0.265131
v 0.713919 0.207703 -0.295715
v 0.739104 -0.000000 -0.306147
v 0.713919 -0.207055 -0.295715
v 0.640082 -0.400000 -0.265131
v 0.522625 -0.565685 -0.216478
v 0.369552 -0.692820 -0.153073
v 0.191294 -0.772741 -0.079237
v 0.207055 1.061397 0.000000
v 0.400000 0.896964 0.000000
v 0.565685 0.674461 0.000000
v 0.692820 0.433830 0.000000
v 0.772741 0.207703 0.000000
v 0.800000 -0.000000 0.000000
v 0.772741 -0.207055 0.000000
v 0.692820 -0.400000 0.000000
v 0.565685 -0.565685 0.000000
v 0.400000 -0.692820 0.000000
v 0.207055 -0.772741 0.000000
v 0.191294 1.061397 0.079237
v 0.369552 0.896964 0.153074
v 0.522625 0.674461 0.216479
v 0.640082 0.433830 0.265131
v 0.713919 0.207703 0.295715
v 0.739103 -0.000000 0.306147
v 0.713919 -0.207055 0.295715
v 0.640082 -0.400000 0.265131
v 0.522625 -0.565685 0.216479
v 0.369552 -0.692820 0.153074
v 0.191294 -0.772741 0.079237
v 0.146410 1.061397 0.146410
v 0.282843 0.896964 0.282843
v 0.400000 0.674461 0.400000
v 0.489898 0.433830 0.489898
v 0.546410 0.207703 0.546410
v 0.565685 -0.000000 0.565685
v 0.546410 -0.207055 0.546410
v 0.489898 -0.400000 0.489898
v 0.400000 -0.565685 0.400000
v 0.282843 -0.692820 0.282843
v 0.146410 -0.772741 0.146410
v 0.079237 1.061397 0.191294
v 0.153073 0.896964 0.369552
v 0.216478 0.674461 0.522625
v 0.265131 0.433830 0.640083
v 0.295715 0.207703 0.713919
v 0.306147 -0.000000 0.739103
v 0.295715 -0.207055 0.713919
v 0.265131 -0.400000 0.640082
v 0.216478 -0.565685 0.522625
v 0.153073 -0.692820 0.369552
v 0.079237 -0.772741 0.191294
v -0.000000 1.061397 0.207055
v -0.000000 0.896964 0.400000
v -0.000000 0.674461 0.565685
v -0.000000 0.433830 0.692820
v -0.000000 0.207703 0.772740
v -0.000000 -0.000000 0.800000
v -0.000000 -0.207055 0.772740
v -0.000000 -0.400000 0.692820
v -0.000000 -0.565685 0.565685
v -0.000000 -0.692820 0.400000
v -0.000000 -0.772741 0.207055
v -0.079237 1.061397 0.191294
v -0.153073 0.896964 0.369552
v -0.216479 0.674461 0.522625
v -0.265131 0.433830 0.640082
v -0.295715 0.207703 0.713919
v -0.306147 -0.000000 0.739103
v -0.295715 -0.207055 0.713919
v -0.265131 -0.400000 0.640082
v -0.216479 -0.565685 0.522625
v -0.153074 -0.692820 0.369552
v -0.079237 -0.772741 0.191294
v -0.000000 1.125293 0.000000
v -0.146410 1.061397 0.146410
v -0.282843 0.896964 0.282843
v -0.400000 0.674461 0.400000
v -0.489898 0.433830 0.489898
v -0.546410 0.207703 0.546410
v -0.565685 -0.000000 0.565685
v -0.546410 -0.207055 0.546410
v -0.489898 -0.400000 0.489898
v -0.400000 -0.565685 0.400000
v -0.282843 -0.692820 0.282843
v -0.146410 -0.772741 0.146410
v 0.000000 -0.800000 0.000000
v -0.191294 1.061397 0.079237
v -0.369552 0.896964 0.153073
v -0.522625 0.674461 0.216478
v -0.640082 0.433830 0.265131
v -0.713919 0.207703 0.295715
v -0.739103 -0.000000 0.306146
v -0.713919 -0.207055 0.295715
v -0.640082 -0.400000 0.265131
v -0.522625 -0.565685 0.216478
v -0.369552 -0.692820 0.153073
v -0.191294 -0.772741 0.079237
v -0.207055 1.061397 -0.000000
v -0.400000 0.896964 -0.000000
v -0.565685 0.674461 -0.000000
v -0.692820 0.433830 -0.000000
v -0.772740 0.207703 -0.000000
v -0.800000 -0.000000 -0.000000
v -0.772740 -0.207055 -0.000000
v -0.692820 -0.400000 -0.000000
v -0.565685 -0.565685 -0.000000
v -0.400000 -0.692820 -0.000000
v -0.207055 -0.772741 0.000000
v -0.191294 1.061397 -0.079237
v -0.369552 0.896964 -0.153073
v -0.522625 0.674461 -0.216479
v -0.640082 0.433830 -0.265131
v -0.713919 0.207703 -0.295715
v -0.739103 -0.000000 -0.306147
v -0.713919 -0.207055 -0.295715
v -0.640082 -0.400000 -0.265131
v -0.522625 -0.565685 -0.216479
v -0.369552 -0.692820 -0.153073
v -0.191294 -0.772741 -0.079237
v -0.146410 1.061397 -0.146410
v -0.282843 0.896964 -0.282843
v -0.400000 0.674461 -0.400000
v -0.489898 0.433830 -0.489898
v -0.546410 0.207703 -0.546410
v -0.565685 -0.000000 -0.565685
v -0.546410 -0.207055 -0.546410
v -0.489897 -0.400000 -0.489898
v -0.400000 -0.565685 -0.400000
v -0.282843 -0.692820 -0.282843
v -0.146410 -0.772741 -0.146410
v -0.079237 1.061397 -0.191294
v -0.153073 0.896964 -0.369552
v -0.216478 0.674461 -0.522625
v -0.265130 0.433830 -0.640082
v -0.295715 0.207703 -0.713919
v -0.306146 -0.000000 -0.739103
v -0.295715 -0.207055 -0.713919
v -0.265130 -0.400000 -0.640082
v -0.216478 -0.565685 -0.522625
v -0.153073 -0.692820 -0.369552
v -0.079237 -0.772741 -0.191294
v 0.000000 0.896964 -0.400000
v 0.000000 0.674461 -0.565685
v 0.000000 0.207703 -0.772740
vt 0.750000 0.750000
vt 0.750000 0.833333
vt 0.687500 0.833333
vt 0.687500 0.750000
vt 0.750000 0.166667
vt 0.750000 0.250000
vt 0.687500 0.250000
vt 0.687500 0.166667
vt 0.750000 0.416667
vt 0.750000 0.500000
vt 0.687500 0.500000
vt 0.687500 0.416667
vt 0.750000 0.666667
vt 0.687500 0.666667
vt 0.750000 0.083333
vt 0.687500 0.083333
vt 0.750000 0.916667
vt 0.718750 1.000000
vt 0.687500 0.916667
vt 0.750000 0.333333
vt 0.687500 0.333333
vt 0.750000 0.583333
vt 0.687500 0.583333
vt 0.718750 0.000000
vt 0.625000 0.416667
vt 0.625000 0.333333
vt 0.625000 0.666667
vt 0.625000 0.583333
vt 0.656250 0.000000
vt 0.625000 0.083333
vt 0.625000 0.916667
vt 0.625000 0.833333
vt 0.625000 0.250000
vt 0.625000 0.500000
vt 0.625000 0.750000
vt 0.625000 0.166667
vt 0.656250 1.000000
vt 0.562500 0.500000
vt 0.562500 0.416667
vt 0.562500 0.750000
vt 0.562500 0.666667
vt 0.562500 0.166667
vt 0.562500 0.083333
vt 0.593750 1.000000
vt 0.562500 0.916667
vt 0.562500 0.333333
vt 0.562500 0.583333
vt 0.593750 0.000000
vt 0.562500 0.833333
vt 0.562500 0.250000
vt 0.500000 0.333333
vt 0.500000 0.250000
vt 0.500000 0.583333
vt 0.500000 0.500000
vt 0.500000 0.833333
vt 0.500000 0.750000
vt 0.500000 0.166667
vt 0.500000 0.416667
vt 0.500000 0.666667
vt 0.500000 0.083333
vt 0.531250 1.000000
vt 0.500000 0.916667
vt 0.531250 0.000000
vt 0.468750 1.000000
vt 0.437500 0.916667
vt 0.437500 0.416667
vt 0.437500 0.333333
vt 0.437500 0.666667
vt 0.437500 0.583333
vt 0.468750 0.000000
vt 0.437500 0.083333
vt 0.437500 0.833333
vt 0.437500 0.250000
vt 0.437500 0.500000
vt 0.437500 0.750000
vt 0.437500 0.166667
vt 0.375000 0.250000
vt 0.375000 0.166667
vt 0.375000 0.500000
vt 0.375000 0.416667
vt 0.375000 0.750000
vt 0.375000 0.666667
vt 0.375000 0.083333
vt 0.406250 1.000000
vt 0.375000 0.916667
vt 0.375000 0.333333
vt 0.375000 0.583333
vt 0.406250 0.000000
vt 0.375000 0.833333
vt 0.312500 0.916667
vt 0.312500 0.833333
vt 0.312500 0.333333
vt 0.312500 0.250000
vt 0.312500 0.583333
vt 0.312500 0.500000
vt 0.312500 0.750000
vt 0.312500 0.166667
vt 0.312500 0.416667
vt 0.312500 0.666667
vt 0.312500 0.083333
vt 0.343750 1.000000
vt 0.343750 0.000000
vt 0.250000 0.166667
vt 0.250000 0.083333
vt 0.281250 1.000000
vt 0.250000 0.916667
vt 0.250000 0.416667
vt 0.250000 0.333333
vt 0.250000 0.666667
vt 0.250000 0.583333
vt 0.281250 0.000000
vt 0.250000 0.833333
vt 0.250000 0.250000
vt 0.250000 0.500000
vt 0.250000 0.750000
vt 0.187500 0.833333
vt 0.187500 0.750000
vt 0.187500 0.250000
vt 0.187500 0.166667
vt 0.187500 0.500000
vt 0.187500 0.416667
vt 0.187500 0.666667
vt 0.187500 0.083333
vt 0.218750 1.000000
vt 0.187500 0.916667
vt 0.187500 0.333333
vt 0.187500 0.583333
vt 0.218750 0.000000
vt 0.156250 0.000000
vt 0.125000 0.083333
vt 0.125000 0.916667
vt 0.125000 0.833333
vt 0.125000 0.333333
vt 0.125000 0.250000
vt 0.125000 0.583333
vt 0.125000 0.500000
vt 0.125000 0.750000
vt 0.125000 0.166667
vt 0.125000 0.416667
vt 0.125000 0.666667
vt 0.156250 1.000000
vt 0.062500 0.750000
vt 0.062500 0.666667
vt 0.062500 0.166667
vt 0.062500 0.083333
vt 0.093750 1.000000
vt 0.062500 0.916667
vt 0.062500 0.416667
vt 0.062500 0.333333
vt 0.062500 0.583333
vt 0.093750 0.000000
vt 0.062500 0.833333
vt 0.062500 0.250000
vt 0.062500 0.500000
vt 0.000000 0.833333
vt 0.000000 0.750000
vt 0.000000 0.250000
vt 0.000000 0.166667
vt 0.000000 0.500000
vt 0.000000 0.416667
vt 0.000000 0.666667
vt 0.000000 0.083333
vt 0.031250 1.000000
vt 0.000000 0.916667
vt 0.000000 0.333333
vt 0.000000 0.583333
vt 0.031250 0.000000
vt 1.000000 0.583333
vt 1.000000 0.666667
vt 0.937500 0.666667
vt 0.937500 0.583333
vt 0.968750 0.000000
vt 1.000000 0.083333
vt 0.937500 0.083333
vt 1.000000 0.833333
vt 1.000000 0.916667
vt 0.937500 0.916667
vt 0.937500 0.833333
vt 1.000000 0.250000
vt 1.000000 0.333333
vt 0.937500 0.333333
vt 0.937500 0.250000
vt 1.000000 0.500000
vt 0.937500 0.500000
vt 1.000000 0.750000
vt 0.937500 0.750000
vt 1.000000 0.166667
vt 0.937500 0.166667
vt 1.000000 0.416667
vt 0.937500 0.416667
vt 0.968750 1.000000
vt 0.875000 0.750000
vt 0.875000 0.666667
vt 0.875000 0.166667
vt 0.875000 0.083333
vt 0.906250 1.000000
vt 0.875000 0.916667
vt 0.875000 0.416667
vt 0.875000 0.333333
vt 0.875000 0.583333
vt 0.906250 0.000000
vt 0.875000 0.833333
vt 0.875000 0.250000
vt 0.875000 0.500000
vt 0.812500 0.583333
vt 0.812500 0.500000
vt 0.812500 0.833333
vt 0.812500 0.750000
vt 0.812500 0.250000
vt 0.812500 0.166667
vt 0.812500 0.416667
vt 0.812500 0.666667
vt 0.812500 0.083333
vt 0.843750 1.000000
vt 0.812500 0.916667
vt 0.812500 0.333333
vt 0.843750 0.000000
vt 0.781250 0.000000
vt 0.781250 1.000000
vn 0.1575 0.5898 -0.7920
vn 0.1202 -0.7876 -0.6043
vn 0.1935 -0.1281 -0.9727
vn 0.1732 0.4601 -0.8708
vn 0.0759 -0.9212 -0.3816
vn 0.0586 0.9539 -0.2944
vn 0.1807 -0.3764 -0.9087
vn 0.1843 0.3275 -0.9267
vn 0.0260 -0.9911 -0.1305
vn 0.1280 0.7548 -0.6433
vn 0.1559 -0.6013 -0.7837
vn 0.1935 0.1277 -0.9728
vn 0.5147 -0.3764 -0.7703
vn 0.5249 0.3275 -0.7856
vn 0.0739 -0.9911 -0.1106
vn 0.3644 0.7548 -0.5454
vn 0.4439 -0.6013 -0.6644
vn 0.5510 0.1277 -0.8247
vn 0.4487 0.5898 -0.6715
vn 0.3423 -0.7876 -0.5123
vn 0.5510 -0.1281 -0.8246
vn 0.4933 0.4601 -0.7382
vn 0.2161 -0.9212 -0.3235
vn 0.1667 0.9539 -0.2496
vn 0.8246 -0.1281 -0.5510
vn 0.7382 0.4601 -0.4933
vn 0.3235 -0.9212 -0.2161
vn 0.2496 0.9539 -0.1667
vn 0.7703 -0.3764 -0.5147
vn 0.7856 0.3275 -0.5249
vn 0.1106 -0.9911 -0.0739
vn 0.5454 0.7548 -0.3644
vn 0.6644 -0.6013 -0.4439
vn 0.8247 0.1277 -0.5510
vn 0.6715 0.5898 -0.4487
vn 0.5123 -0.7876 -0.3423
vn 0.7837 -0.6013 -0.1559
vn 0.9728 0.1277 -0.1935
vn 0.7920 0.5898 -0.1575
vn 0.6043 -0.7876 -0.1202
vn 0.9727 -0.1281 -0.1935
vn 0.8708 0.4601 -0.1732
vn 0.3816 -0.9212 -0.0759
vn 0.2944 0.9539 -0.0586
vn 0.9087 -0.3764 -0.1807
vn 0.9267 0.3275 -0.1843
vn 0.1305 -0.9911 -0.0260
vn 0.6433 0.7548 -0.1280
vn 0.2944 0.9539 0.0586
vn 0.9087 -0.3764 0.1807
vn 0.9267 0.3275 0.1843
vn 0.1305 -0.9911 0.0260
vn 0.6433 0.7548 0.1280
vn 0.7837 -0.6013 0.1559
vn 0.9728 0.1277 0.1935
vn 0.7920 0.5898 0.1575
vn 0.6043 -0.7876 0.1202
vn 0.9727 -0.1281 0.1935
vn 0.8708 0.4601 0.1732
vn 0.3816 -0.9212 0.0759
vn 0.5123 -0.7876 0.3423
vn 0.8246 -0.1281 0.5510
vn 0.7382 0.4601 0.4933
vn 0.3235 -0.9212 0.2161
vn 0.2496 0.9539 0.1667
vn 0.7703 -0.3764 0.5147
vn 0.7856 0.3275 0.5249
vn 0.1106 -0.9911 0.0739
vn 0.5454 0.7548 0.3644
vn 0.6644 -0.6013 0.4439
vn 0.8247 0.1277 0.5510
vn 0.6715 0.5898 0.4487
vn 0.3644 0.7548 0.5454
vn 0.4439 -0.6013 0.6644
vn 0.5510 0.1277 0.8247
vn 0.4487 0.5898 0.6715
vn 0.3423 -0.7876 0.5123
vn 0.5510 -0.1281 0.8246
vn 0.4933 0.4601 0.7382
vn 0.2161 -0.9212 0.3235
vn 0.1667 0.9539 0.2496
vn 0.5147 -0.3764 0.7703
vn 0.5249 0.3275 0.7856
vn 0.0739 -0.9911 0.1106
vn 0.0759 -0.9212 0.3816
vn 0.0586 0.9539 0.2944
vn 0.1807 -0.3764 0.9087
vn 0.1843 0.3275 0.9267
vn 0.0260 -0.9911 0.1305
vn 0.1280 0.7548 0.6433
vn 0.1559 -0.6013 0.7837
vn 0.1935 0.1277 0.9728
vn 0.1575 0.5898 0.7920
vn 0.1202 -0.7876 0.6043
vn 0.1935 -0.1281 0.9727
vn 0.1732 0.4601 0.8708
vn -0.1575 0.5898 0.7920
vn -0.1202 -0.7876 0.6043
vn -0.1935 -0.1281 0.9727
vn -0.1732 0.4601 0.8708
vn -0.0759 -0.9212 0.3816
vn -0.0586 0.9539 0.2944
vn -0.1807 -0.3764 0.9087
vn -0.1843 0.3275 0.9267
vn -0.0260 -0.9911 0.1305
vn -0.1280 0.7548 0.6433
vn -0.1559 -0.6013 0.7837
vn -0.1935 0.1277 0.9728
vn -0.0739 -0.9911 0.1106
vn -0.3644 0.7548 0.5454
vn -0.4439 -0.6013 0.6644
vn -0.5510 0.1277 0.8247
vn -0.4487 0.5898 0.6715
vn -0.3423 -0.7876 0.5123
vn -0.5510 -0.1281 0.8246
vn -0.4933 0.4601 0.7382
vn -0.2161 -0.9212 0.3235
vn -0.1667 0.9539 0.2496
vn -0.5147 -0.3764 0.7703
vn -0.5249 0.3275 0.7856
vn -0.7382 0.4601 0.4933
vn -0.3235 -0.9212 0.2161
vn -0.2496 0.9539 0.1667
vn -0.7703 -0.3764 0.5147
vn -0.7856 0.3275 0.5249
vn -0.1106 -0.9911 0.0739
vn -0.5454 0.7548 0.3644
vn -0.6644 -0.6013 0.4439
vn -0.8247 0.1277 0.5510
vn -0.6715 0.5898 0.4487
vn -0.5123 -0.7876 0.3423
vn -0.8246 -0.1281 0.5510
vn -0.7920 0.5898 0.1575
vn -0.6043 -0.7876 0.1202
vn -0.9727 -0.1281 0.1935
vn -0.8708 0.4601 0.1732
vn -0.3816 -0.9212 0.0759
vn -0.2944 0.9539 0.0586
vn -0.9087 -0.3764 0.1807
vn -0.9267 0.3275 0.1843
vn -0.1305 -0.9911 0.0260
vn -0.6433 0.7548 0.1280
vn -0.7837 -0.6013 0.1559
vn -0.9728 0.1277 0.1935
vn -0.9267 0.3275 -0.1843
vn -0.1305 -0.9911 -0.0260
vn -0.6433 0.7548 -0.1280
vn -0.7837 -0.6013 -0.1559
vn -0.9728 0.1277 -0.1935
vn -0.7920 0.5898 -0.1575
vn -0.6043 -0.7876 -0.1202
vn -0.9727 -0.1281 -0.1935
vn -0.8708 0.4601 -0.1732
vn -0.3816 -0.9212 -0.0759
vn -0.2944 0.9539 -0.0586
vn -0.9087 -0.3764 -0.1807
vn -0.7382 0.4601 -0.4933
vn -0.3235 -0.9212 -0.2161
vn -0.2496 0.9539 -0.1667
vn -0.7703 -0.3764 -0.5147
vn -0.7856 0.3275 -0.5249
vn -0.1106 -0.9911 -0.0739
vn -0.5454 0.7548 -0.3644
vn -0.6644 -0.6013 -0.4439
vn -0.8247 0.1277 -0.5510
vn -0.6715 0.5898 -0.4487
vn -0.5123 -0.7876 -0.3423
vn -0.8246 -0.1281 -0.5510
vn -0.5510 0.1277 -0.8247
vn -0.4487 0.5898 -0.6715
vn -0.3423 -0.7876 -0.5123
vn -0.5510 -0.1281 -0.8246
vn -0.4933 0.4601 -0.7382
vn -0.2161 -0.9212 -0.3235
vn -0.1667 0.9539 -0.2496
vn -0.5147 -0.3764 -0.7703
vn -0.5249 0.3275 -0.7856
vn -0.0739 -0.9911 -0.1106
vn -0.3644 0.7548 -0.5454
vn -0.4439 -0.6013 -0.6644
vn -0.1843 0.3275 -0.9267
vn -0.0260 -0.9911 -0.1305
vn -0.1280 0.7548 -0.6433
vn -0.1559 -0.6013 -0.7837
vn -0.1935 0.1277 -0.9728
vn -0.1575 0.5898 -0.7920
vn -0.1202 -0.7876 -0.6043
vn -0.1935 -0.1281 -0.9727
vn -0.1732 0.4601 -0.8708
vn -0.0759 -0.9212 -0.3816
vn -0.0586 0.9539 -0.2944
vn -0.1807 -0.3764 -0.9087
usemtl Material.002
s off
f 177/1/1 176/2/1 10/3/1 11/4/1
f 7/5/2 6/6/2 17/7/2 18/8/2
f 4/9/3 3/10/3 14/11/3 15/12/3
f 2/13/4 177/1/4 11/4/4 12/14/4
f 8/15/5 7/5/5 18/8/5 19/16/5
f 1/17/6 108/18/6 9/19/6
f 5/20/7 4/9/7 15/12/7 16/21/7
f 178/22/8 2/13/8 12/14/8 13/23/8
f 120/24/9 8/15/9 19/16/9
f 176/2/10 1/17/10 9/19/10 10/3/10
f 6/6/11 5/20/11 16/21/11 17/7/11
f 3/10/12 178/22/12 13/23/12 14/11/12
f 16/21/13 15/12/13 26/25/13 27/26/13
f 13/23/14 12/14/14 23/27/14 24/28/14
f 120/29/15 19/16/15 30/30/15
f 10/3/16 9/19/16 20/31/16 21/32/16
f 17/7/17 16/21/17 27/26/17 28/33/17
f 14/11/18 13/23/18 24/28/18 25/34/18
f 11/4/19 10/3/19 21/32/19 22/35/19
f 18/8/20 17/7/20 28/33/20 29/36/20
f 15/12/21 14/11/21 25/34/21 26/25/21
f 12/14/22 11/4/22 22/35/22 23/27/22
f 19/16/23 18/8/23 29/36/23 30/30/23
f 9/19/24 108/37/24 20/31/24
f 26/25/25 25/34/25 36/38/25 37/39/25
f 23/27/26 22/35/26 33/40/26 34/41/26
f 30/30/27 29/36/27 40/42/27 41/43/27
f 20/31/28 108/44/28 31/45/28
f 27/26/29 26/25/29 37/39/29 38/46/29
f 24/28/30 23/27/30 34/41/30 35/47/30
f 120/48/31 30/30/31 41/43/31
f 21/32/32 20/31/32 31/45/32 32/49/32
f 28/33/33 27/26/33 38/46/33 39/50/33
f 25/34/34 24/28/34 35/47/34 36/38/34
f 22/35/35 21/32/35 32/49/35 33/40/35
f 29/36/36 28/33/36 39/50/36 40/42/36
f 39/50/37 38/46/37 49/51/37 50/52/37
f 36/38/38 35/47/38 46/53/38 47/54/38
f 33/40/39 32/49/39 43/55/39 44/56/39
f 40/42/40 39/50/40 50/52/40 51/57/40
f 37/39/41 36/38/41 47/54/41 48/58/41
f 34/41/42 33/40/42 44/56/42 45/59/42
f 41/43/43 40/42/43 51/57/43 52/60/43
f 31/45/44 108/61/44 42/62/44
f 38/46/45 37/39/45 48/58/45 49/51/45
f 35/47/46 34/41/46 45/59/46 46/53/46
f 120/63/47 41/43/47 52/60/47
f 32/49/48 31/45/48 42/62/48 43/55/48
f 42/62/49 108/64/49 53/65/49
f 49/51/50 48/58/50 59/66/50 60/67/50
f 46/53/51 45/59/51 56/68/51 57/69/51
f 120/70/52 52/60/52 63/71/52
f 43/55/53 42/62/53 53/65/53 54/72/53
f 50/52/54 49/51/54 60/67/54 61/73/54
f 47/54/55 46/53/55 57/69/55 58/74/55
f 44/56/56 43/55/56 54/72/56 55/75/56
f 51/57/57 50/52/57 61/73/57 62/76/57
f 48/58/58 47/54/58 58/74/58 59/66/58
f 45/59/59 44/56/59 55/75/59 56/68/59
f 52/60/60 51/57/60 62/76/60 63/71/60
f 62/76/61 61/73/61 72/77/61 73/78/61
f 59/66/62 58/74/62 69/79/62 70/80/62
f 56/68/63 55/75/63 66/81/63 67/82/63
f 63/71/64 62/76/64 73/78/64 74/83/64
f 53/65/65 108/84/65 64/85/65
f 60/67/66 59/66/66 70/80/66 71/86/66
f 57/69/67 56/68/67 67/82/67 68/87/67
f 120/88/68 63/71/68 74/83/68
f 54/72/69 53/65/69 64/85/69 65/89/69
f 61/73/70 60/67/70 71/86/70 72/77/70
f 58/74/71 57/69/71 68/87/71 69/79/71
f 55/75/72 54/72/72 65/89/72 66/81/72
f 65/89/73 64/85/73 75/90/73 76/91/73
f 72/77/74 71/86/74 82/92/74 83/93/74
f 69/79/75 68/87/75 79/94/75 80/95/75
f 66/81/76 65/89/76 76/91/76 77/96/76
f 73/78/77 72/77/77 83/93/77 84/97/77
f 70/80/78 69/79/78 80/95/78 81/98/78
f 67/82/79 66/81/79 77/96/79 78/99/79
f 74/83/80 73/78/80 84/97/80 85/100/80
f 64/85/81 108/101/81 75/90/81
f 71/86/82 70/80/82 81/98/82 82/92/82
f 68/87/83 67/82/83 78/99/83 79/94/83
f 120/102/84 74/83/84 85/100/84
f 85/100/85 84/97/85 95/103/85 96/104/85
f 75/90/86 108/105/86 86/106/86
f 82/92/87 81/98/87 92/107/87 93/108/87
f 79/94/88 78/99/88 89/109/88 90/110/88
f 120/111/89 85/100/89 96/104/89
f 76/91/90 75/90/90 86/106/90 87/112/90
f 83/93/91 82/92/91 93/108/91 94/113/91
f 80/95/92 79/94/92 90/110/92 91/114/92
f 77/96/93 76/91/93 87/112/93 88/115/93
f 84/97/94 83/93/94 94/113/94 95/103/94
f 81/98/95 80/95/95 91/114/95 92/107/95
f 78/99/96 77/96/96 88/115/96 89/109/96
f 88/115/97 87/112/97 98/116/97 99/117/97
f 95/103/98 94/113/98 105/118/98 106/119/98
f 92/107/99 91/114/99 102/120/99 103/121/99
f 89/109/100 88/115/100 99/117/100 100/122/100
f 96/104/101 95/103/101 106/119/101 107/123/101
f 86/106/102 108/124/102 97/125/102
f 93/108/103 92/107/103 103/121/103 104/126/103
f 90/110/104 89/109/104 100/122/104 101/127/104
f 120/128/105 96/104/105 107/123/105
f 87/112/106 86/106/106 97/125/106 98/116/106
f 94/113/107 93/108/107 104/126/107 105/118/107
f 91/114/108 90/110/108 101/127/108 102/120/108
f 120/129/109 107/123/109 119/130/109
f 98/116/110 97/125/110 109/131/110 110/132/110
f 105/118/111 104/126/111 116/133/111 117/134/111
f 102/120/112 101/127/112 113/135/112 114/136/112
f 99/117/113 98/116/113 110/132/113 111/137/113
f 106/119/114 105/118/114 117/134/114 118/138/114
f 103/121/115 102/120/115 114/136/115 115/139/115
f 100/122/116 99/117/116 111/137/116 112/140/116
f 107/123/117 106/119/117 118/138/117 119/130/117
f 97/125/118 108/141/118 109/131/118
f 104/126/119 103/121/119 115/139/119 116/133/119
f 101/127/120 100/122/120 112/140/120 113/135/120
f 112/140/121 111/137/121 123/142/121 124/143/121
f 119/130/122 118/138/122 130/144/122 131/145/122
f 109/131/123 108/146/123 121/147/123
f 116/133/124 115/139/124 127/148/124 128/149/124
f 113/135/125 112/140/125 124/143/125 125/150/125
f 120/151/126 119/130/126 131/145/126
f 110/132/127 109/131/127 121/147/127 122/152/127
f 117/134/128 116/133/128 128/149/128 129/153/128
f 114/136/129 113/135/129 125/150/129 126/154/129
f 111/137/130 110/132/130 122/152/130 123/142/130
f 118/138/131 117/134/131 129/153/131 130/144/131
f 115/139/132 114/136/132 126/154/132 127/148/132
f 123/142/133 122/152/133 133/155/133 134/156/133
f 130/144/134 129/153/134 140/157/134 141/158/134
f 127/148/135 126/154/135 137/159/135 138/160/135
f 124/143/136 123/142/136 134/156/136 135/161/136
f 131/145/137 130/144/137 141/158/137 142/162/137
f 121/147/138 108/163/138 132/164/138
f 128/149/139 127/148/139 138/160/139 139/165/139
f 125/150/140 124/143/140 135/161/140 136/166/140
f 120/167/141 131/145/141 142/162/141
f 122/152/142 121/147/142 132/164/142 133/155/142
f 129/153/143 128/149/143 139/165/143 140/157/143
f 126/154/144 125/150/144 136/166/144 137/159/144
f 136/168/145 135/169/145 146/170/145 147/171/145
f 120/172/146 142/173/146 153/174/146
f 133/175/147 132/176/147 143/177/147 144/178/147
f 140/179/148 139/180/148 150/181/148 151/182/148
f 137/183/149 136/168/149 147/171/149 148/184/149
f 134/185/150 133/175/150 144/178/150 145/186/150
f 141/187/151 140/179/151 151/182/151 152/188/151
f 138/189/152 137/183/152 148/184/152 149/190/152
f 135/169/153 134/185/153 145/186/153 146/170/153
f 142/173/154 141/187/154 152/188/154 153/174/154
f 132/176/155 108/191/155 143/177/155
f 139/180/156 138/189/156 149/190/156 150/181/156
f 146/170/157 145/186/157 156/192/157 157/193/157
f 153/174/158 152/188/158 163/194/158 164/195/158
f 143/177/159 108/196/159 154/197/159
f 150/181/160 149/190/160 160/198/160 161/199/160
f 147/171/161 146/170/161 157/193/161 158/200/161
f 120/201/162 153/174/162 164/195/162
f 144/178/163 143/177/163 154/197/163 155/202/163
f 151/182/164 150/181/164 161/199/164 162/203/164
f 148/184/165 147/171/165 158/200/165 159/204/165
f 145/186/166 144/178/166 155/202/166 156/192/166
f 152/188/167 151/182/167 162/203/167 163/194/167
f 149/190/168 148/184/168 159/204/168 160/198/168
f 159/204/169 158/200/169 169/205/169 170/206/169
f 156/192/170 155/202/170 166/207/170 167/208/170
f 163/194/171 162/203/171 173/209/171 174/210/171
f 160/198/172 159/204/172 170/206/172 171/211/172
f 157/193/173 156/192/173 167/208/173 168/212/173
f 164/195/174 163/194/174 174/210/174 175/213/174
f 154/197/175 108/214/175 165/215/175
f 161/199/176 160/198/176 171/211/176 172/216/176
f 158/200/177 157/193/177 168/212/177 169/205/177
f 120/217/178 164/195/178 175/213/178
f 155/202/179 154/197/179 165/215/179 166/207/179
f 162/203/180 161/199/180 172/216/180 173/209/180
f 169/205/181 168/212/181 2/13/181 178/22/181
f 120/218/182 175/213/182 8/15/182
f 166/207/183 165/215/183 1/17/183 176/2/183
f 173/209/184 172/216/184 5/20/184 6/6/184
f 170/206/185 169/205/185 178/22/185 3/10/185
f 167/208/186 166/207/186 176/2/186 177/1/186
f 174/210/187 173/209/187 6/6/187 7/5/187
f 171/211/188 170/206/188 3/10/188 4/9/188
f 168/212/189 167/208/189 177/1/189 2/13/189
f 175/213/190 174/210/190 7/5/190 8/15/190
f 165/215/191 108/219/191 1/17/191
f 172/216/192 171/211/192 4/9/192 5/20/192
