# 3ds Max Wavefront OBJ Exporter v0.97b - (c)2007 guruware
# File Created: 13.09.2018 09:22:26

#
# object Plane001
#

v  2.96740 0.00000 -41.79080
v  47.44241 0.00000 -73.14767
v  -51.45215 0.00000 -73.14767
v  -51.45215 0.00000 71.06652
v  -26.65548 0.00000 -13.38552
v  -26.65548 0.00000 -41.79080
v  13.54957 0.00000 6.70859
v  2.96740 0.00000 -13.38552
v  -21.57428 0.00000 20.80601
v  -13.02876 0.00000 42.09724
v  47.44241 0.00000 71.06652
v  24.29680 0.00000 27.11613
v  21.27428 0.00000 3.60818
v  29.81980 0.00000 24.89940
# 14 vertices

vn 0.00000 1.00000 -0.00000
# 1 vertex normals

vt 0.55028 0.78257 0.00000
vt 1.00000 1.00000 0.00000
vt 0.00000 1.00000 0.00000
vt 0.00000 0.00000 0.00000
vt 0.25074 0.58560 0.00000
vt 0.25074 0.78257 0.00000
vt 0.65728 0.44627 0.00000
vt 0.55028 0.58560 0.00000
vt 0.30212 0.34851 0.00000
vt 0.38853 0.20088 0.00000
vt 1.00000 0.00000 0.00000
vt 0.76596 0.30476 0.00000
vt 0.73539 0.46776 0.00000
vt 0.82180 0.32013 0.00000
# 14 texture coords

g Plane001
s 1
f 1/1/1 2/2/1 3/3/1 
f 3/3/1 4/4/1 5/5/1 
f 3/3/1 5/5/1 6/6/1 
f 1/1/1 3/3/1 6/6/1 
f 7/7/1 8/8/1 5/5/1 
f 9/9/1 7/7/1 5/5/1 
f 9/9/1 5/5/1 4/4/1 
f 10/10/1 9/9/1 4/4/1 
f 10/10/1 4/4/1 11/11/1 
f 10/10/1 11/11/1 12/12/1 
f 1/1/1 8/8/1 7/7/1 
f 1/1/1 7/7/1 13/13/1 
f 14/14/1 12/12/1 11/11/1 
f 14/14/1 11/11/1 2/2/1 
f 13/13/1 14/14/1 2/2/1 
f 1/1/1 13/13/1 2/2/1 
# 16 faces

