# 3ds Max Wavefront OBJ Exporter v0.97b - (c)2007 guruware
# File Created: 01.12.2018 14:25:56

mtllib letter_A.mtl

#
# object Text001
#

v  -13.0728 0.0000 19.4537
v  -20.0134 0.0000 38.8537
v  13.8694 0.0000 19.4537
v  21.2866 0.0000 38.8537
v  30.9413 0.0000 38.8537
v  4.7929 0.0000 -25.2463
v  -4.5446 0.0000 -25.2463
v  -29.0040 0.0000 38.8537
v  -3.0014 0.0000 -8.0200
v  -3.6165 0.0000 -6.2791
v  -2.4221 0.0000 -9.7696
v  -1.8787 0.0000 -11.5277
v  -1.3711 0.0000 -13.2944
v  -0.8994 0.0000 -15.0698
v  -0.4635 0.0000 -16.8538
v  -0.0634 0.0000 -18.6463
v  0.4120 0.0000 -17.0660
v  0.9506 0.0000 -15.3741
v  1.5526 0.0000 -13.5707
v  2.2177 0.0000 -11.6558
v  2.9462 0.0000 -9.6293
v  3.7379 0.0000 -7.4912
v  4.5929 0.0000 -5.2416
v  11.2007 0.0000 12.5537
v  -10.5712 0.0000 12.5537
# 25 vertices

vn 1.0000 0.0000 -0.0000
vn 0.0000 1.0000 -0.0000
vn 0.0000 -1.0000 -0.0000
# 3 vertex normals

g Text001
usemtl wire_214229166
s 2
f 1//1 1//1 2//1 
f 2//1 2//1 1//1 
s 4
f 3//1 3//1 1//1 
f 1//1 1//1 3//1 
s 8
f 4//1 4//1 3//1 
f 3//1 3//1 4//1 
s 16
f 5//1 5//1 4//1 
f 4//1 4//1 5//1 
s 2
f 6//1 6//1 5//1 
f 5//1 5//1 6//1 
s 4
f 7//1 7//1 6//1 
f 6//1 6//1 7//1 
s 8
f 8//1 8//1 7//1 
f 7//1 7//1 8//1 
s 17
f 2//1 2//1 8//1 
f 8//1 8//1 2//1 
s 2
f 9//1 9//1 10//1 
f 10//1 10//1 9//1 
f 11//1 11//1 9//1 
f 9//1 9//1 11//1 
f 12//1 12//1 11//1 
f 11//1 11//1 12//1 
f 13//1 13//1 12//1 
f 12//1 12//1 13//1 
f 14//1 14//1 13//1 
f 13//1 13//1 14//1 
f 15//1 15//1 14//1 
f 14//1 14//1 15//1 
f 16//1 16//1 15//1 
f 15//1 15//1 16//1 
s 4
f 17//1 17//1 16//1 
f 16//1 16//1 17//1 
f 18//1 18//1 17//1 
f 17//1 17//1 18//1 
f 19//1 19//1 18//1 
f 18//1 18//1 19//1 
f 20//1 20//1 19//1 
f 19//1 19//1 20//1 
f 21//1 21//1 20//1 
f 20//1 20//1 21//1 
f 22//1 22//1 21//1 
f 21//1 21//1 22//1 
f 23//1 23//1 22//1 
f 22//1 22//1 23//1 
s 8
f 24//1 24//1 23//1 
f 23//1 23//1 24//1 
s 16
f 25//1 25//1 24//1 
f 24//1 24//1 25//1 
s 3
f 10//1 10//1 25//1 
f 25//1 25//1 10//1 
s 1024
f 9//2 11//2 12//2 
f 21//2 22//2 23//2 
f 21//2 23//2 3//2 
f 20//2 21//2 3//2 
f 19//2 20//2 3//2 
f 18//2 19//2 3//2 
f 17//2 18//2 3//2 
f 16//2 17//2 3//2 
f 4//2 5//2 6//2 
f 3//2 4//2 6//2 
f 16//2 3//2 6//2 
f 16//2 6//2 7//2 
f 7//2 8//2 2//2 
f 16//2 7//2 2//2 
f 16//2 2//2 1//2 
f 15//2 16//2 1//2 
f 14//2 15//2 1//2 
f 13//2 14//2 1//2 
f 12//2 13//2 1//2 
f 3//2 23//2 24//2 
f 3//2 24//2 25//2 
f 1//2 3//2 25//2 
f 12//2 1//2 25//2 
f 12//2 25//2 10//2 
f 9//2 12//2 10//2 
f 24//3 23//3 3//3 
f 25//3 24//3 3//3 
f 25//3 3//3 1//3 
f 2//3 8//3 7//3 
f 6//3 5//3 4//3 
f 6//3 4//3 3//3 
f 23//3 22//3 21//3 
f 3//3 23//3 21//3 
f 3//3 21//3 20//3 
f 3//3 20//3 19//3 
f 3//3 19//3 18//3 
f 3//3 18//3 17//3 
f 3//3 17//3 16//3 
f 6//3 3//3 16//3 
f 7//3 6//3 16//3 
f 2//3 7//3 16//3 
f 1//3 2//3 16//3 
f 1//3 16//3 15//3 
f 1//3 15//3 14//3 
f 1//3 14//3 13//3 
f 1//3 13//3 12//3 
f 25//3 1//3 12//3 
f 10//3 25//3 12//3 
f 9//3 10//3 12//3 
f 9//3 12//3 11//3 
# 100 faces

