# Blender v3.0.0 OBJ File: ''
# www.blender.org
mtllib room_01.mtl
o Plane
v -1.000000 0.000000 1.000000
v 1.000000 0.000000 1.000000
v -1.000000 0.000000 -1.000000
v 1.000000 0.000000 -1.000000
v -1.000000 1.031906 -1.000000
v 1.000000 1.031906 -1.000000
v -1.000000 0.000000 -1.000000
v -1.000000 0.000000 1.000000
v -1.000000 1.031906 1.000000
v -1.000000 1.031906 -1.000000
v 1.000000 1.031906 1.000000
v 1.000000 1.031906 -1.000000
v -0.686506 1.037790 -0.720881
v 0.708536 1.037790 -0.720881
v -0.686506 1.033597 0.674161
v -0.686506 1.037790 -0.720881
v -0.686506 1.033597 -0.720881
v 0.708536 1.037790 -0.720881
v -0.686506 0.942092 -0.720881
v -0.686506 0.942092 0.674161
v -0.686506 0.942092 -0.720881
v 0.708536 0.942092 0.674161
v 0.708536 0.942092 -0.720881
v 0.708536 0.942092 -0.720881
v -0.686506 1.037790 -0.720881
v -0.686506 1.033597 -0.720881
v -0.686506 1.037790 -0.720881
v 0.708536 1.033597 0.674161
v 0.708536 1.037790 -0.720881
v 0.708536 1.037790 -0.720881
v 0.708536 1.033597 -0.720881
v 0.708536 1.033597 -0.720881
v 1.000000 0.000000 -1.000000
v -1.000000 0.000000 -1.000000
v 1.000000 1.031906 -1.000000
v -1.000000 1.031906 -1.000000
vt 0.001230 0.002461
vt 1.001230 0.002461
vt 1.001230 1.002461
vt 0.001230 1.002461
vt 0.000000 0.000000
vt 0.000000 0.000000
vt 0.000000 0.000000
vt 0.000000 0.000000
vt 0.000000 0.000000
vt 1.000000 0.000000
vt 1.000000 1.000000
vt 0.000000 1.000000
vt 0.000000 0.000000
vt 1.000000 0.000000
vt 1.000000 1.000000
vt 0.000000 1.000000
vt 2.092017 2.087177
vt -1.092017 2.087177
vt -1.092017 -1.087177
vt -1.092017 -1.087177
vt 2.092017 -1.087177
vt 2.092017 -1.087177
vt 0.000000 0.000000
vt 1.000000 0.000000
vt 1.000000 0.000000
vt 1.000000 1.000000
vt 1.000000 1.000000
vt 0.000000 1.000000
vt 0.000000 0.000000
vt 0.000000 0.000000
vt 0.000000 0.000000
vt 0.000000 0.000000
vt 0.000000 0.000000
vt 0.000000 0.000000
vt 1.000000 0.000000
vt 1.000000 1.000000
vt 0.000000 1.000000
vt 0.000000 1.000000
vt 0.000000 0.000000
vt 0.000000 0.000000
vt 0.000000 1.000000
vt 1.000000 1.000000
vt 0.000000 1.000000
vt 0.000000 0.000000
vt 0.000000 0.000000
vt 1.000000 0.000000
vt 1.000000 1.000000
vt 0.000000 1.000000
vt 0.000000 0.000000
vt 1.001230 1.002461
vt 0.001230 1.002461
vt 0.000000 0.000000
vn 0.0000 1.0000 0.0000
vn 0.0000 0.0000 1.0000
vn 1.0000 0.0000 0.0000
vn -1.0000 0.0000 0.0000
vn 0.0000 -1.0000 0.0000
vn 0.0000 0.0000 -1.0000
usemtl Material.002
s off
f 1/1/1 2/2/1 4/3/1 3/4/1
f 6/5/2 5/6/2 36/7/2 35/8/2
f 8/9/3 7/10/3 10/11/3 9/12/3
f 4/13/4 2/14/4 11/15/4 12/16/4
f 9/17/1 11/18/1 6/19/1 12/20/1 5/21/1 10/22/1
f 20/23/5 19/24/5 21/25/5 23/26/5 24/27/5 22/28/5
f 22/29/3 24/30/3 32/31/3 28/32/3
f 24/30/2 23/33/2 31/34/2 32/31/2
f 20/23/2 22/35/2 28/36/2 15/37/2
f 21/38/2 19/39/2 17/40/2 26/41/2
f 23/33/6 21/25/6 26/42/6 31/43/6
f 19/39/4 20/23/4 15/44/4 17/40/4
f 34/45/2 33/46/2 35/47/2 36/48/2
f 5/6/2 3/49/2 34/45/2 36/7/2
f 3/4/2 4/3/2 33/50/2 34/51/2
f 4/13/2 6/5/2 35/8/2 33/52/2
l 13 16
l 18 14
l 14 30
l 29 18
l 16 25
l 27 13
